<svg width="36" height="36" viewBox="0 0 36 36" fill="none" xmlns="http://www.w3.org/2000/svg">
<path d="M6 6H10.5L13.5 3H22.5L25.5 6H30C30.7956 6 31.5587 6.31607 32.1213 6.87868C32.6839 7.44129 33 8.20435 33 9V27C33 27.7956 32.6839 28.5587 32.1213 29.1213C31.5587 29.6839 30.7956 30 30 30H6C5.20435 30 4.44129 29.6839 3.87868 29.1213C3.31607 28.5587 3 27.7956 3 27V9C3 8.20435 3.31607 7.44129 3.87868 6.87868C4.44129 6.31607 5.20435 6 6 6ZM18 10.5C16.0109 10.5 14.1032 11.2902 12.6967 12.6967C11.2902 14.1032 10.5 16.0109 10.5 18C10.5 19.9891 11.2902 21.8968 12.6967 23.3033C14.1032 24.7098 16.0109 25.5 18 25.5C19.9891 25.5 21.8968 24.7098 23.3033 23.3033C24.7098 21.8968 25.5 19.9891 25.5 18C25.5 16.0109 24.7098 14.1032 23.3033 12.6967C21.8968 11.2902 19.9891 10.5 18 10.5ZM18 13.5C19.1935 13.5 20.3381 13.9741 21.182 14.818C22.0259 15.6619 22.5 16.8065 22.5 18C22.5 19.1935 22.0259 20.3381 21.182 21.182C20.3381 22.0259 19.1935 22.5 18 22.5C16.8065 22.5 15.6619 22.0259 14.818 21.182C13.9741 20.3381 13.5 19.1935 13.5 18C13.5 16.8065 13.9741 15.6619 14.818 14.818C15.6619 13.9741 16.8065 13.5 18 13.5Z" fill="white"/>
</svg>
